<?xml version="1.0" encoding="UTF-8" standalone="no"?>
<svg
   xmlns:dc="http://purl.org/dc/elements/1.1/"
   xmlns:cc="http://creativecommons.org/ns#"
   xmlns:rdf="http://www.w3.org/1999/02/22-rdf-syntax-ns#"
   xmlns:svg="http://www.w3.org/2000/svg"
   xmlns="http://www.w3.org/2000/svg"
   xmlns:sodipodi="http://sodipodi.sourceforge.net/DTD/sodipodi-0.dtd"
   xmlns:inkscape="http://www.inkscape.org/namespaces/inkscape"
   version="1.1"
   id="svg4768"
   viewBox="0 0 472.6201 143.59288"
   height="40.525101mm"
   width="133.3839mm"
   inkscape:version="0.91 r13725"
   sodipodi:docname="ponto.svg">
  <sodipodi:namedview
     pagecolor="#ffffff"
     bordercolor="#666666"
     borderopacity="1"
     objecttolerance="10"
     gridtolerance="10"
     guidetolerance="10"
     inkscape:pageopacity="0"
     inkscape:pageshadow="2"
     inkscape:window-width="1440"
     inkscape:window-height="847"
     id="namedview44"
     showgrid="false"
     inkscape:zoom="1.5064954"
     inkscape:cx="185.38721"
     inkscape:cy="64.423949"
     inkscape:window-x="0"
     inkscape:window-y="25"
     inkscape:window-maximized="1"
     inkscape:current-layer="layer1" />
  <defs
     id="defs4770">
    <clipPath
       clipPathUnits="userSpaceOnUse"
       id="clipPath4792">
      <path
         d="m 0,850.379 850.379,0 L 850.379,0 0,0 0,850.379 Z"
         id="path4794" />
    </clipPath>
  </defs>
  <metadata
     id="metadata4773">
    <rdf:RDF>
      <cc:Work
         rdf:about="">
        <dc:format>image/svg+xml</dc:format>
        <dc:type
           rdf:resource="http://purl.org/dc/dcmitype/StillImage" />
        <dc:title />
      </cc:Work>
    </rdf:RDF>
  </metadata>
  <g
     transform="translate(-237.97632,-261.14972)"
     id="layer1">
    <g
       transform="matrix(1.25,0,0,-1.25,420.24419,316.0411)"
       id="g4940"
       style="fill:#942a37;fill-opacity:1">
      <path
         id="path4942"
         style="fill:#942a37;fill-opacity:1;fill-rule:nonzero;stroke:none"
         d="m 0,0 -19.384,0.012 0,24.751 19.296,0.017 0,0.02 C 6.765,24.797 12.354,19.207 12.354,12.353 12.354,5.496 6.855,0 0,0 m 20.045,12.412 c 0,11.207 -8.977,20.298 -20.133,20.512 l 0,0.022 -22.251,0 -0.003,-0.028 c -2.767,-0.141 -5,-2.056 -5.175,-4.449 l -0.018,-0.007 0,-69.354 8.151,0 0,32.772 18.986,0 0,0.006 c 11.3,0.048 20.443,9.219 20.443,20.526" />
    </g>
    <g
       transform="matrix(1.25,0,0,-1.25,564.39832,292.51597)"
       id="g4944"
       style="fill:#942a37;fill-opacity:1">
      <path
         id="path4946"
         style="fill:#942a37;fill-opacity:1;fill-rule:nonzero;stroke:none"
         d="m 0,0 c -14.871,0 -26.928,-12.055 -26.928,-26.933 l 0,-32.228 8.359,0 0,32.228 c 0,10.261 8.314,18.575 18.569,18.575 10.262,0 18.583,-8.314 18.583,-18.575 l 0,-32.228 8.354,0 0,32.228 C 26.937,-12.055 14.874,0 0,0" />
    </g>
    <g
       transform="matrix(1.25,0,0,-1.25,674.59894,356.6031)"
       id="g4948"
       style="fill:#942a37;fill-opacity:1">
      <path
         id="path4950"
         style="fill:#942a37;fill-opacity:1;fill-rule:nonzero;stroke:none"
         d="m 0,0 c -11.434,0 -20.712,9.494 -20.712,21.232 0,11.713 9.278,21.216 20.712,21.216 11.423,0 20.705,-9.503 20.705,-21.216 C 20.705,9.494 11.423,0 0,0 m 0,50.746 c -15.901,0 -28.803,-13.213 -28.803,-29.514 C -28.803,4.923 -15.901,-8.3 0,-8.3 15.892,-8.3 28.798,4.923 28.798,21.232 28.798,37.533 15.892,50.746 0,50.746" />
    </g>
    <g
       transform="matrix(1.25,0,0,-1.25,485.16582,356.02335)"
       id="g4952"
       style="fill:#942a37;fill-opacity:1">
      <path
         id="path4954"
         style="fill:#942a37;fill-opacity:1;fill-rule:nonzero;stroke:none"
         d="m 0,0 c -11.435,0 -20.713,9.495 -20.713,21.235 0,11.713 9.278,21.217 20.713,21.217 11.421,0 20.705,-9.504 20.705,-21.217 C 20.705,9.495 11.421,0 0,0 m 0,50.748 c -15.903,0 -28.804,-13.213 -28.804,-29.513 0,-16.31 12.901,-29.533 28.804,-29.533 15.892,0 28.798,13.223 28.798,29.533 0,16.3 -12.906,29.513 -28.798,29.513" />
    </g>
    <g
       transform="matrix(1.25,0,0,-1.25,618.44907,274.3701)"
       id="g4956"
       style="fill:#942a37;fill-opacity:1">
      <path
         id="path4958"
         style="fill:#942a37;fill-opacity:1;fill-rule:nonzero;stroke:none"
         d="m 0,0 -2.196,0 c -3.219,0 -5.875,-2.195 -6.072,-4.941 l -0.019,-0.01 0,-52.704 c 0,-10.755 5.015,-16.133 15.048,-16.133 l 5.807,0 0,8.136 -5.338,0 c -4.825,0 -7.23,4.244 -7.23,9.833 l 0,32.934 15.516,0 0,8.198 L 0,-14.687 0,0 Z" />
    </g>
    <g
       transform="matrix(1.25,0,0,-1.25,621.72869,381.1431)"
       id="g4960"
       style="fill:#67666a;fill-opacity:1">
      <path
         id="path4962"
         style="fill:#67666a;fill-opacity:1;fill-rule:nonzero;stroke:none"
         d="m 0,0 0.871,1.427 0.042,0 0.043,0 L 1.827,0 3.6,0 1.581,3.008 l -0.668,0 -0.667,0 L -1.773,0 0,0 Z" />
    </g>
    <g
       transform="matrix(1.25,0,0,-1.25,681.95207,401.77935)"
       id="g4964"
       style="fill:#67666a;fill-opacity:1">
      <path
         id="path4966"
         style="fill:#67666a;fill-opacity:1;fill-rule:nonzero;stroke:none"
         d="m 0,0 -3.934,0 c -3.2,0 -6.121,2.944 -6.121,6.148 0,3.208 2.921,6.091 6.121,6.091 l 3.934,0 1.834,0 0,2.403 -1.834,0 -4.334,0 0,-0.007 c -4.503,-0.208 -8.091,-3.926 -8.091,-8.487 0,-4.556 3.588,-8.275 8.091,-8.483 l 0,-0.007 4.334,-0.019 1.834,0 L 1.834,0 0,0 Z" />
    </g>
    <g
       transform="matrix(1.25,0,0,-1.25,662.84719,383.56385)"
       id="g4968"
       style="fill:#67666a;fill-opacity:1">
      <path
         id="path4970"
         style="fill:#67666a;fill-opacity:1;fill-rule:nonzero;stroke:none"
         d="m 0,0 -0.622,0 c -0.927,0 -1.691,-0.625 -1.747,-1.407 l -0.01,-0.005 0,-15.531 2.379,0 L 0,0 Z" />
    </g>
    <g
       transform="matrix(1.25,0,0,-1.25,646.28669,383.46735)"
       id="g4972"
       style="fill:#67666a;fill-opacity:1">
      <path
         id="path4974"
         style="fill:#67666a;fill-opacity:1;fill-rule:nonzero;stroke:none"
         d="m 0,0 c -4.26,0 -7.715,-3.455 -7.715,-7.716 l 0,-9.231 2.395,0 0,9.231 c 0,2.937 2.383,5.318 5.32,5.318 2.939,0 5.322,-2.381 5.322,-5.318 l 0,-9.231 2.394,0 0,9.231 C 7.716,-3.455 4.26,0 0,0" />
    </g>
    <g
       transform="matrix(1.25,0,0,-1.25,622.39007,401.70535)"
       id="g4976"
       style="fill:#67666a;fill-opacity:1">
      <path
         id="path4978"
         style="fill:#67666a;fill-opacity:1;fill-rule:nonzero;stroke:none"
         d="m 0,0 c -3.276,0 -5.933,2.721 -5.933,6.081 0,3.358 2.657,6.08 5.933,6.08 3.272,0 5.93,-2.722 5.93,-6.08 C 5.93,2.721 3.272,0 0,0 m 0,14.538 c -4.555,0 -8.25,-3.786 -8.25,-8.457 0,-4.671 3.695,-8.456 8.25,-8.456 4.552,0 8.249,3.785 8.249,8.456 0,4.671 -3.697,8.457 -8.249,8.457" />
    </g>
    <g
       transform="matrix(1.25,0,0,-1.25,696.20394,401.75285)"
       id="g4980"
       style="fill:#67666a;fill-opacity:1">
      <path
         id="path4982"
         style="fill:#67666a;fill-opacity:1;fill-rule:nonzero;stroke:none"
         d="m 0,0 c -3.276,0 -5.933,2.718 -5.933,6.083 0,3.353 2.657,6.075 5.933,6.075 3.272,0 5.93,-2.722 5.93,-6.075 C 5.93,2.718 3.272,0 0,0 m 0,14.536 c -4.554,0 -8.25,-3.784 -8.25,-8.453 0,-4.672 3.696,-8.462 8.25,-8.462 4.554,0 8.249,3.79 8.249,8.462 0,4.669 -3.695,8.453 -8.249,8.453" />
    </g>
    <g
       transform="matrix(1.25,0,0,-1.25,592.81032,378.26485)"
       id="g4984"
       style="fill:#67666a;fill-opacity:1">
      <path
         id="path4986"
         style="fill:#67666a;fill-opacity:1;fill-rule:nonzero;stroke:none"
         d="m 0,0 -0.628,0 c -0.923,0 -1.683,-0.629 -1.739,-1.412 l -0.005,-0.005 0,-15.097 c 0,-3.083 1.434,-4.621 4.309,-4.621 l 1.665,0 0,2.332 -1.53,0 C 0.69,-18.803 0,-17.592 0,-15.991 l 0,9.438 4.445,0 0,2.348 L 0,-4.205 0,0 Z" />
    </g>
    <g
       transform="matrix(1.25,0,0,-1.25,601.94294,389.3031)"
       id="g4988"
       style="fill:#67666a;fill-opacity:1">
      <path
         id="path4990"
         style="fill:#67666a;fill-opacity:1;fill-rule:nonzero;stroke:none"
         d="m 0,0 0,-12.236 2.332,0 0,12.126 c 0,1.602 0.69,2.403 2.071,2.403 l 3.006,0 0,2.328 -3.1,0 C 1.437,4.621 0,3.083 0,0" />
    </g>
    <g
       transform="matrix(1.25,0,0,-1.25,568.31694,392.16898)"
       id="g4992"
       style="fill:#67666a;fill-opacity:1">
      <path
         id="path4994"
         style="fill:#67666a;fill-opacity:1;fill-rule:nonzero;stroke:none"
         d="M 0,0 C 0.672,2.635 3.008,4.583 5.797,4.583 8.582,4.583 10.915,2.635 11.586,0 L 0,0 Z m 14.028,-2.344 c 0.025,0.261 0.038,0.527 0.038,0.794 0,4.674 -3.704,8.464 -8.269,8.464 -4.574,0 -8.276,-3.79 -8.276,-8.464 0,-4.657 3.678,-8.434 8.225,-8.462 l 6.113,0 0,2.332 -6.113,0 c -3.029,0.026 -5.519,2.335 -5.893,5.336 l 14.175,0 z" />
    </g>
    <g
       transform="matrix(1.25,0,0,-1.25,533.67169,392.16898)"
       id="g4996"
       style="fill:#67666a;fill-opacity:1">
      <path
         id="path4998"
         style="fill:#67666a;fill-opacity:1;fill-rule:nonzero;stroke:none"
         d="M 0,0 C 0.67,2.635 3.008,4.583 5.797,4.583 8.579,4.583 10.915,2.635 11.586,0 L 0,0 Z m 14.028,-2.344 c 0.023,0.261 0.038,0.527 0.038,0.794 0,4.674 -3.706,8.464 -8.269,8.464 -4.573,0 -8.278,-3.79 -8.278,-8.464 0,-4.657 3.68,-8.434 8.227,-8.462 l 6.114,0 0,2.332 -6.114,0 c -3.029,0.026 -5.519,2.335 -5.893,5.336 l 14.175,0 z" />
    </g>
    <g
       transform="matrix(1.25,0,0,-1.25,558.25282,398.95485)"
       id="g5000"
       style="fill:#67666a;fill-opacity:1">
      <path
         id="path5002"
         style="fill:#67666a;fill-opacity:1;fill-rule:nonzero;stroke:none"
         d="m 0,0 0,11.288 0,2.745 0,2.519 -0.82,0 c -0.837,0 -1.527,-0.569 -1.578,-1.284 l -0.006,-0.001 0,-15.652 c 0,-2.8 1.305,-4.198 3.914,-4.198 l 2.086,0 0,2.406 -1.712,0 C 0.628,-2.177 0,-1.454 0,0" />
    </g>
    <g
       transform="matrix(1.25,0,0,-1.25,298.26007,372.18472)"
       id="g5004"
       style="fill:#942a37;fill-opacity:1">
      <path
         id="path5006"
         style="fill:#942a37;fill-opacity:1;fill-rule:nonzero;stroke:none"
         d="m 0,0 c -22.423,0 -40.601,18.177 -40.601,40.602 0,22.423 18.178,40.601 40.601,40.601 22.424,0 40.601,-18.178 40.601,-40.601 C 40.601,18.177 22.424,0 0,0 m 0,88.828 c -26.593,0 -48.227,-21.634 -48.227,-48.225 0,-26.593 21.634,-48.228 48.227,-48.228 26.594,0 48.229,21.635 48.229,48.228 0,26.591 -21.635,48.225 -48.229,48.225" />
    </g>
    <g
       transform="matrix(1.25,0,0,-1.25,329.35719,320.20435)"
       id="g5008"
       style="fill:#67666a;fill-opacity:1">
      <path
         id="path5010"
         style="fill:#67666a;fill-opacity:1;fill-rule:nonzero;stroke:none"
         d="m 0,0 -19.341,0 -0.711,0 c -0.622,1.758 -2.023,3.145 -3.793,3.743 l 0,0.758 0,23.149 c 0,1.128 -0.916,2.046 -2.045,2.046 -1.128,0 -2.045,-0.918 -2.045,-2.046 l 0,-23.149 0,-0.761 -0.291,-0.179 c -1.928,-0.839 -3.334,-2.646 -3.612,-4.808 -0.002,-0.01 -0.003,-0.02 -0.005,-0.031 -0.03,-0.247 -0.051,-0.497 -0.051,-0.753 0,-3.367 2.73,-6.097 6.098,-6.097 2.643,0 4.887,1.685 5.733,4.036 l 0.722,0 19.341,0 c 1.127,0 2.046,0.918 2.046,2.046 C 2.046,-0.918 1.127,0 0,0" />
    </g>
  </g>
</svg>
